<svg xmlns="http://www.w3.org/2000/svg" viewBox="0 0 100 100" fill="none" stroke-linecap="round" stroke-linejoin="round">
  
  <rect x="0" y="0" width="100" height="100" rx="20" fill="#0f172a" />

  <path d="M 45 25 
           C 25 25, 10 35, 25 50 
           C 40 65, 30 80, 15 80" 
        stroke="#4ade80" stroke-width="8" fill="none" />
  
  <circle cx="45" cy="25" r="7" fill="#4ade80" />
  <circle cx="47" cy="23" r="2" fill="black" />
  <path d="M 50 25 L 56 22 M 50 25 L 56 28" stroke="#f87171" stroke-width="2" />

  <path d="M 65 25 
           Q 60 50, 65 80" 
        stroke="#fb923c" stroke-width="8" fill="none" />
  
  <path d="M 65 25 L 85 25 
           Q 90 25, 90 30 
           Q 90 35, 80 35 L 65 35" 
        fill="#fb923c" />
        
  <path d="M 64 50 L 80 45 
           Q 85 50, 80 55 L 64 55" 
        fill="#fb923c" />
        
  <circle cx="75" cy="30" r="2" fill="white" />
  <circle cx="76" cy="30" r="1" fill="black" />

</svg>
